<svg width="261" height="163" viewBox="0 0 261 163" fill="none" xmlns="http://www.w3.org/2000/svg">
<path d="M34.9962 25.1812H10.9903C4.93027 25.1812 0 20.251 0 14.1909C0 8.13091 4.93027 3.20065 10.9903 3.20065C12.2777 3.20065 13.5363 3.42198 14.7231 3.8511C17.0677 1.4031 20.3028 0 23.7935 0C28.4303 0 32.5727 2.49083 34.7665 6.40428C34.843 6.40249 34.9195 6.4015 34.9962 6.4015C40.1737 6.4015 44.3859 10.6138 44.3859 15.7913C44.3859 20.9688 40.1737 25.1812 34.9962 25.1812Z" fill="#CDCDCD" fill-opacity="0.28"/>
<path d="M34.9961 25.1812C40.1736 25.1812 44.3859 20.969 44.3859 15.7915C44.3859 10.614 40.1736 6.4017 34.9961 6.4017C34.9194 6.4017 34.8429 6.40269 34.7664 6.40448C32.5724 2.49083 28.4303 0 23.7935 0V25.1812H34.9961Z" fill="#C8CAD2" fill-opacity="0.55"/>
<path d="M250.99 69.8115L226.989 69.3763C220.93 69.2665 216.089 64.2477 216.199 58.1886C216.309 52.1296 221.328 47.2895 227.387 47.3994C228.674 47.4227 229.929 47.6668 231.107 48.1174C233.496 45.7123 236.756 44.3681 240.246 44.4313C244.882 44.5154 248.979 47.0809 251.101 51.0335C251.178 51.0331 251.254 51.0335 251.331 51.0349C256.508 51.1287 260.643 55.4167 260.549 60.5933C260.455 65.77 256.167 69.9054 250.99 69.8115Z" fill="#F5F5FA"/>
<path d="M250.99 69.8115C256.167 69.9054 260.455 65.7702 260.549 60.5935C260.643 55.4169 256.508 51.1289 251.331 51.0351C251.254 51.0337 251.178 51.0333 251.101 51.0337C248.978 47.0809 244.882 44.5154 240.246 44.4313L239.79 69.6084L250.99 69.8115Z" fill="#C8CAD2" fill-opacity="0.42"/>
<g clip-path="url(#clip0)">
<path d="M134 0V61.8276C134 61.8276 156.621 34.9043 156.621 22.4828C156.621 10.0654 146.494 0 134 0Z" fill="#FF4764" fill-opacity="0.64"/>
<path d="M111.379 22.4828C111.379 34.9043 134 61.8276 134 61.8276V0C121.506 0 111.379 10.0654 111.379 22.4828Z" fill="#FF3051" fill-opacity="0.64"/>
<path d="M111.379 73.069L52 163H72.9501L120.312 73.069H111.379Z" fill="#FFCD00" fill-opacity="0.64"/>
<path d="M147.688 73.069L195.05 163H216L156.621 73.069H147.688Z" fill="#FFCD00" fill-opacity="0.64"/>
<path d="M147.691 72.8298H120.309L72.9363 163H195.064L147.691 72.8298Z" fill="#61656C"/>
<path d="M131.172 81.5H136.828V87.1207H131.172V81.5Z" fill="#A7A9AC"/>
<path d="M131.172 73.069H136.828V75.8793H131.172V73.069Z" fill="#A7A9AC"/>
<path d="M131.172 92.7413H136.828V101.172H131.172V92.7413Z" fill="#A7A9AC"/>
<path d="M131.172 106.793H136.828V118.034H131.172V106.793Z" fill="#A7A9AC"/>
<path d="M131.172 126.466H136.828V140.517H131.172V126.466Z" fill="#A7A9AC"/>
<path d="M131.172 148.948H136.828V163H131.172V148.948Z" fill="#A7A9AC"/>
<path d="M125.517 19.6724C125.517 24.3284 129.315 28.1035 134 28.1035V11.2414C129.315 11.2414 125.517 15.0164 125.517 19.6724Z" fill="#F1F2F2"/>
<path d="M134 11.2414V28.1035C138.685 28.1035 142.483 24.3284 142.483 19.6724C142.483 15.0164 138.685 11.2414 134 11.2414Z" fill="#F9F9F9"/>
</g>
<defs>
<clipPath id="clip0">
<rect width="164" height="163" fill="white" transform="translate(52)"/>
</clipPath>
</defs>
</svg>
