<svg width="114" height="114" viewBox="0 0 114 114" fill="none" xmlns="http://www.w3.org/2000/svg">
<circle cx="57" cy="57" r="57" fill="#2B517D" fill-opacity="0.21"/>
<g clip-path="url(#clip0)">
<path d="M54.1499 32.1596C53.8813 31.6882 53.2815 31.5238 52.8103 31.7924C52.7989 31.7988 52.5256 31.9549 52.0913 32.2398C51.6378 32.5373 51.5111 33.1462 51.8087 33.5997C52.1062 34.0535 52.7151 34.1799 53.1686 33.8824C53.5428 33.637 53.7767 33.5026 53.7832 33.4989C54.2539 33.2302 54.4183 32.6307 54.1499 32.1596Z" fill="#050402"/>
<path d="M62.2987 78.3031C61.9683 78.691 61.6196 79.083 61.2622 79.4683C60.8932 79.866 60.9165 80.4874 61.3142 80.8563C61.7108 81.2244 62.3325 81.2029 62.7022 80.8043C63.0784 80.3988 63.4459 79.9858 63.7941 79.5769C64.1458 79.1639 64.0962 78.544 63.6832 78.1923C63.2705 77.8405 62.6506 77.8901 62.2987 78.3031Z" fill="#050402"/>
<path d="M67.3158 72.3028C66.8263 72.0687 66.2401 72.2756 66.0059 72.7649C65.7935 73.2089 65.554 73.6632 65.2941 74.1152C65.0238 74.5855 65.1858 75.1859 65.6561 75.4563C66.1255 75.7262 66.7261 75.5655 66.9971 75.0943C67.2816 74.5997 67.5441 74.1012 67.7779 73.6127C68.0119 73.1234 67.8052 72.5369 67.3158 72.3028Z" fill="#050402"/>
<path d="M69.3333 68.1691C69.3583 67.8529 69.3712 67.5347 69.3712 67.2234C69.3712 66.9568 69.3619 66.6882 69.3434 66.4247C69.3055 65.8836 68.8348 65.4754 68.295 65.5137C67.7539 65.5516 67.3459 66.021 67.3839 66.5621C67.3991 66.7799 67.407 67.0022 67.4068 67.2232C67.4068 67.4831 67.3962 67.7492 67.3752 68.0139C67.3322 68.5546 67.7358 69.0278 68.2767 69.0707C68.8159 69.1136 69.2904 68.7108 69.3333 68.1691Z" fill="#050402"/>
<path d="M66.4191 59.5998C66.0658 59.188 65.4458 59.1406 65.0341 59.4938C64.6224 59.847 64.5749 60.4671 64.9281 60.8788C65.2566 61.2618 65.5565 61.6574 65.8193 62.0548C66.1185 62.5073 66.7279 62.6315 67.1803 62.3322C67.6328 62.033 67.757 61.4237 67.4577 60.9712C67.1501 60.506 66.8006 60.0446 66.4191 59.5998Z" fill="#050402"/>
<path d="M62.1525 55.9796C61.7022 55.6892 61.2251 55.4013 60.7341 55.1237C60.2619 54.8568 59.6626 55.0231 59.3956 55.4954C59.1287 55.9676 59.295 56.5669 59.7673 56.8338C60.2252 57.0926 60.6696 57.3608 61.0878 57.6305C61.5407 57.9226 62.1497 57.7961 62.4455 57.3374C62.7396 56.8814 62.6084 56.2736 62.1525 55.9796Z" fill="#050402"/>
<path d="M54.5354 52.0109C54.0613 51.7469 53.4634 51.9176 53.1996 52.3918C52.9359 52.8658 53.1064 53.4639 53.5805 53.7276C54.0424 53.9845 54.529 54.2428 55.0268 54.495C55.5074 54.7388 56.1002 54.5498 56.3469 54.063C56.5921 53.5792 56.3987 52.9881 55.9148 52.7429C55.4395 52.5018 54.9753 52.2556 54.5354 52.0109Z" fill="#050402"/>
<path d="M49.0132 50.6325C49.425 50.9836 50.0452 50.9358 50.3979 50.5221C50.7497 50.1092 50.7003 49.4893 50.2874 49.1374C49.8901 48.7988 49.5201 48.453 49.1878 48.1101C48.8104 47.7206 48.1887 47.7105 47.799 48.0879C47.4093 48.4653 47.3995 49.0872 47.7769 49.4768C48.1524 49.8646 48.5686 50.2535 49.0132 50.6325Z" fill="#050402"/>
<path d="M45.7304 41.6707C45.1897 41.658 44.7365 42.0834 44.7217 42.6256C44.7198 42.6957 44.7188 42.7659 44.719 42.8354C44.719 43.3728 44.7756 43.914 44.8875 44.444C44.9998 44.9766 45.5226 45.3141 46.0513 45.2024C46.582 45.0903 46.9216 44.5694 46.8096 44.0386C46.7258 43.6416 46.6834 43.2368 46.6834 42.8345C46.6834 42.7826 46.6841 42.7309 46.6855 42.6795C46.7002 42.1372 46.2725 41.6856 45.7304 41.6707Z" fill="#050402"/>
<path d="M46.9835 38.5342C47.4228 38.8523 48.0369 38.754 48.355 38.3146C48.6346 37.9287 48.9516 37.5386 49.2974 37.1556C49.6608 36.7528 49.6291 36.1318 49.2264 35.7683C48.8235 35.4047 48.2025 35.4367 47.8392 35.8392C47.4463 36.2745 47.0845 36.7197 46.7639 37.1625C46.4458 37.6019 46.5441 38.2159 46.9835 38.5342Z" fill="#050402"/>
<path d="M57.4694 83.061C57.1066 83.361 56.8907 83.5253 56.8889 83.5268C56.4568 83.8547 56.3723 84.4708 56.7002 84.9029C57.0292 85.3364 57.6453 85.4186 58.0764 85.0916C58.0864 85.084 58.3234 84.9039 58.7213 84.5747C59.1393 84.229 59.1979 83.6099 58.8522 83.1919C58.5067 82.7741 57.8875 82.7153 57.4694 83.061Z" fill="#050402"/>
<path d="M61.3677 91H80.4866C82.1273 91 83.6197 90.026 84.3813 88.4582C93.2764 70.1434 91.2334 53.6492 71.6162 47.5864C65.3009 45.6346 57.7057 42.4455 57.3855 38.3364C57.1295 35.0523 61.4896 31.1886 70.3448 26.8531C71.7406 26.1696 71.263 24 69.7221 24C67.6404 24 64.7787 24 62.6015 24C61.3696 24 60.174 24.2791 59.0481 24.8294C56.3066 26.1694 52.6884 28.0815 49.1907 30.3643C38.7986 36.1947 33.4778 41.8423 33.3761 47.1503C33.3065 50.784 35.6952 54.1106 40.4757 57.0377C44.8065 59.6893 47.0029 62.6635 47.0036 65.8775C47.006 74.4492 31.6448 83.8654 26.5969 86.9597C24.7776 88.075 25.5432 91 27.6328 91H56.7876C57.3298 91 57.769 90.5606 57.769 90.0186C57.769 89.4765 57.3298 89.0371 56.7876 89.0371H35.0978C51.8125 78.049 62.0644 64.2196 45.0049 53.7736C34.37 47.262 38.7939 39.8448 49.12 32.7714C52.8699 30.2072 56.9207 28.054 59.91 26.5928C60.7653 26.1749 61.6709 25.9629 62.6015 25.9629H65.2066C60.0067 28.7685 52.3805 33.7632 52.6955 39.6627C52.8163 41.9255 54.0982 44.0674 56.5055 46.029C59.0494 48.1021 62.9528 50.0462 68.1067 51.8076C77.0616 54.8678 81.9551 59.9394 82.6514 66.8814C82.7056 67.4207 83.186 67.8142 83.7259 67.76C84.2653 67.706 84.6587 67.2249 84.6046 66.6855C83.8248 58.9113 78.4876 53.2807 68.7415 49.9501C59.7249 46.8687 54.8539 43.2752 54.6554 39.5579C54.5817 38.179 55.1265 36.8825 55.8917 35.7346C52.9602 42.8687 63.6475 47.1779 71.0364 49.4614C78.4955 51.7668 83.4696 55.6821 85.8204 61.0989C89.7893 70.2439 85.5161 81.6282 82.6156 87.6004C82.1852 88.4865 81.3694 89.037 80.4865 89.037H77.3084C80.7029 83.8828 83.773 77.5882 84.5252 71.4836C84.5915 70.9457 84.2092 70.4559 83.6712 70.3895C83.1339 70.3243 82.6434 70.7055 82.5772 71.2435C82.1981 74.3188 80.6968 80.682 74.9398 89.037H61.3677C60.8255 89.037 60.3862 89.4764 60.3862 90.0184C60.3862 90.5604 60.8257 91 61.3677 91ZM31.4396 89.0371H27.6329C27.6217 89.0371 27.6164 89.0359 27.6164 89.0359H27.616C27.5948 89.0242 27.5405 88.9451 27.5375 88.8273C27.5341 88.6877 27.6007 88.6468 27.6227 88.6333C36.7863 83.016 48.9688 74.5456 48.9664 65.8771C48.9653 61.9336 46.4535 58.3964 41.5005 55.3637C35.1959 51.5036 33.2563 47.0263 37.9339 41.3423C35.1526 47.0917 38.1346 51.725 43.5399 55.1729C43.9308 55.4222 44.0516 55.4875 44.4584 55.7469C60.4354 65.9305 47.5344 79.1411 31.4396 89.0371Z" fill="#050402"/>
</g>
<defs>
<clipPath id="clip0">
<rect width="67" height="67" fill="white" transform="translate(24 24)"/>
</clipPath>
</defs>
</svg>
