<svg width="114" height="114" viewBox="0 0 114 114" fill="none" xmlns="http://www.w3.org/2000/svg">
<circle cx="57" cy="57" r="57" fill="#D3BBA8" fill-opacity="0.43"/>
<path d="M41.1711 47.375C41.5157 47.375 41.853 47.235 42.0964 46.9917C42.3397 46.7478 42.4797 46.4105 42.4797 46.0664C42.4797 45.7219 42.3397 45.3845 42.0964 45.1412C41.853 44.8979 41.5157 44.7578 41.1711 44.7578C40.8256 44.7578 40.4898 44.8979 40.2459 45.1412C40.0026 45.3845 39.8625 45.7219 39.8625 46.0664C39.8625 46.4105 40.0026 46.7478 40.2459 46.9917C40.4898 47.235 40.8271 47.375 41.1711 47.375Z" fill="black"/>
<path d="M59.9168 45.6421C59.6724 45.3988 59.3361 45.2588 58.9905 45.2588C58.6465 45.2588 58.3086 45.3988 58.0653 45.6421C57.822 45.8855 57.6819 46.2233 57.6819 46.5674C57.6819 46.9114 57.822 47.2493 58.0653 47.4926C58.3086 47.7359 58.6465 47.8759 58.9905 47.8759C59.3361 47.8759 59.6724 47.7359 59.9168 47.4926C60.1601 47.2493 60.2991 46.9129 60.2991 46.5674C60.2991 46.2233 60.1601 45.8855 59.9168 45.6421Z" fill="black"/>
<path d="M63.5716 43.2959C63.9161 43.2959 64.2535 43.1558 64.4968 42.9125C64.7401 42.6692 64.8791 42.3313 64.8791 41.9873C64.8791 41.6433 64.7401 41.3054 64.4968 41.0621C64.2535 40.8187 63.9161 40.6787 63.5716 40.6787C63.2265 40.6787 62.8887 40.8187 62.6453 41.0621C62.402 41.3054 62.262 41.6433 62.262 41.9873C62.262 42.3313 62.402 42.6692 62.6453 42.9125C62.8887 43.1558 63.2265 43.2959 63.5716 43.2959Z" fill="black"/>
<path d="M87.0741 51.1909H83.4228L89.8503 44.7634C90.5915 44.0217 90.9999 43.0357 90.9999 41.9873C90.9999 40.9389 90.5915 39.9528 89.8503 39.2116L84.0204 33.3818C83.5097 32.8711 82.6811 32.8711 82.17 33.3818C81.4288 34.1235 80.4427 34.5319 79.3943 34.5319C78.3454 34.5319 77.3599 34.1235 76.6182 33.3818C75.8764 32.6406 75.4685 31.6545 75.4685 30.6061C75.4685 29.5572 75.877 28.5716 76.6182 27.8299C76.8635 27.5846 77.0015 27.2518 77.0015 26.9047C77.0015 26.5576 76.8635 26.2249 76.6182 25.9795L70.7888 20.1501C70.0471 19.4084 69.0615 19 68.0126 19C66.9642 19 65.9782 19.4084 65.237 20.1501L43.6238 41.7629C43.1126 42.2735 43.1126 43.1021 43.6238 43.6133C44.1349 44.1245 44.9635 44.1245 45.4747 43.6133L67.0874 22.0006C67.3348 21.7532 67.663 21.6172 68.0126 21.6172C68.3623 21.6172 68.691 21.7532 68.9378 22.0006L73.9345 26.9967C73.2296 28.0579 72.8514 29.3031 72.8514 30.6061C72.8514 32.3538 73.5317 33.9967 74.7677 35.2327C76.0037 36.4682 77.6466 37.1491 79.3943 37.1491C80.6973 37.1491 81.942 36.7708 83.0037 36.0659L87.9998 41.0621C88.51 41.5722 88.51 42.4024 87.9998 42.9125L79.7215 51.1909H73.9846L78.284 46.8914C78.7947 46.3803 78.7947 45.5517 78.284 45.041L64.9594 31.7164C64.4483 31.2052 63.6196 31.2052 63.1085 31.7164L43.634 51.1909H27.9258C25.761 51.1909 24 52.9519 24 55.1167V63.3608C24 64.0831 24.5858 64.6694 25.3086 64.6694C27.4734 64.6694 29.2344 66.4304 29.2344 68.5952C29.2344 70.7595 27.4734 72.521 25.3086 72.521C24.5858 72.521 24 73.1068 24 73.8296V82.0737C24 84.238 25.761 85.9995 27.9258 85.9995H87.0741C89.2389 85.9995 90.9999 84.238 90.9999 82.0737V73.8296C90.9999 73.1068 90.4141 72.521 89.6913 72.521C87.5265 72.521 85.7655 70.7595 85.7655 68.5952C85.7655 66.4304 87.5265 64.6694 89.6913 64.6694C90.4141 64.6694 90.9999 64.0831 90.9999 63.3608V55.1167C90.9999 52.9519 89.2389 51.1909 87.0741 51.1909ZM64.0337 34.492L75.5079 45.9662L70.2832 51.1909H65.1015L68.9378 47.3541C69.449 46.8434 69.449 46.0148 68.9378 45.5036C68.4272 44.9925 67.5986 44.9925 67.0874 45.5036L61.4002 51.1904H47.3354L64.0337 34.492ZM88.3827 62.1836C85.4 62.7914 83.1483 65.4351 83.1483 68.5952C83.1483 71.7547 85.4 74.3985 88.3827 75.0068V82.0737C88.3827 82.795 87.7959 83.3823 87.0741 83.3823H27.9258C27.204 83.3823 26.6172 82.795 26.6172 82.0737V75.0068C29.5999 74.3985 31.8515 71.7547 31.8515 68.5952C31.8515 65.4351 29.5999 62.7919 26.6172 62.1836V55.1167C26.6172 54.3949 27.204 53.8081 27.9258 53.8081H87.0741C87.7959 53.8081 88.3827 54.3949 88.3827 55.1167V62.1836Z" fill="black"/>
<path d="M51.9476 66.3798C52.1909 66.1359 52.331 65.7986 52.331 65.4546C52.331 65.11 52.1909 64.7727 51.9476 64.5293C51.7043 64.286 51.3664 64.146 51.0224 64.146C50.6784 64.146 50.3405 64.286 50.0972 64.5293C49.8539 64.7727 49.7138 65.11 49.7138 65.4546C49.7138 65.7986 49.8539 66.1359 50.0972 66.3798C50.3405 66.6231 50.6784 66.7632 51.0224 66.7632C51.3664 66.7632 51.7043 66.6231 51.9476 66.3798Z" fill="black"/>
<path d="M64.9027 66.3798C65.146 66.1359 65.2861 65.7986 65.2861 65.4546C65.2861 65.11 65.146 64.7727 64.9027 64.5293C64.6594 64.286 64.3215 64.146 63.9775 64.146C63.6335 64.146 63.2956 64.286 63.0523 64.5293C62.8089 64.7727 62.6689 65.11 62.6689 65.4546C62.6689 65.7986 62.8089 66.1359 63.0523 66.3798C63.2956 66.6231 63.6335 66.7632 63.9775 66.7632C64.3215 66.7632 64.6594 66.6231 64.9027 66.3798Z" fill="black"/>
<path d="M58.4251 66.3798C58.6685 66.1359 58.8085 65.7986 58.8085 65.4546C58.8085 65.11 58.6685 64.7727 58.4251 64.5293C58.1818 64.286 57.844 64.146 57.4999 64.146C57.1559 64.146 56.818 64.286 56.5747 64.5293C56.3314 64.7727 56.1913 65.11 56.1913 65.4546C56.1913 65.7986 56.3314 66.1359 56.5747 66.3798C56.818 66.6231 57.1559 66.7632 57.4999 66.7632C57.844 66.7632 58.1818 66.6231 58.4251 66.3798Z" fill="black"/>
<path d="M44.5449 66.7632C44.8889 66.7632 45.2268 66.6231 45.4701 66.3798C45.7134 66.1359 45.8535 65.7986 45.8535 65.4546C45.8535 65.11 45.7134 64.7727 45.4701 64.5293C45.2268 64.286 44.8889 64.146 44.5449 64.146C44.2008 64.146 43.863 64.286 43.6196 64.5293C43.3763 64.7727 43.2363 65.11 43.2363 65.4546C43.2363 65.7986 43.3763 66.1359 43.6196 66.3798C43.863 66.6231 44.2008 66.7632 44.5449 66.7632Z" fill="black"/>
<path d="M71.3802 66.3798C71.6235 66.1359 71.7636 65.7986 71.7636 65.4546C71.7636 65.11 71.6235 64.7727 71.3802 64.5293C71.1369 64.286 70.799 64.146 70.455 64.146C70.111 64.146 69.7731 64.286 69.5298 64.5293C69.2865 64.7727 69.1464 65.11 69.1464 65.4546C69.1464 65.7986 69.2865 66.1359 69.5298 66.3798C69.7731 66.6231 70.111 66.7632 70.455 66.7632C70.799 66.7632 71.1369 66.6231 71.3802 66.3798Z" fill="black"/>
<path d="M44.5449 73.0444H70.455C71.1778 73.0444 71.7636 72.4581 71.7636 71.7358C71.7636 71.013 71.1778 70.4272 70.455 70.4272H44.5449C43.8221 70.4272 43.2363 71.013 43.2363 71.7358C43.2363 72.4581 43.8221 73.0444 44.5449 73.0444Z" fill="black"/>
<path d="M49.2977 76.7085C48.9537 76.7085 48.6158 76.8485 48.3725 77.0918C48.1292 77.3352 47.9891 77.6725 47.9891 78.0171C47.9891 78.3611 48.1292 78.6985 48.3725 78.9423C48.6158 79.1856 48.9537 79.3257 49.2977 79.3257C49.6433 79.3257 49.9796 79.1856 50.2229 78.9423C50.4678 78.6985 50.6063 78.3611 50.6063 78.0171C50.6063 77.6725 50.4678 77.3352 50.2229 77.0918C49.9796 76.8485 49.6433 76.7085 49.2977 76.7085Z" fill="black"/>
<path d="M77.3905 57.8647H37.6094C36.8866 57.8647 36.3008 58.4505 36.3008 59.1733V78.0171C36.3008 78.7393 36.8866 79.3257 37.6094 79.3257H43.0605C43.7833 79.3257 44.3691 78.7393 44.3691 78.0171C44.3691 77.2943 43.7833 76.7085 43.0605 76.7085H38.918V60.4819H76.082V76.7085H54.8378C54.115 76.7085 53.5292 77.2943 53.5292 78.0171C53.5292 78.7393 54.115 79.3257 54.8378 79.3257H77.3905C78.1133 79.3257 78.6991 78.7393 78.6991 78.0171V59.1733C78.6991 58.4505 78.1133 57.8647 77.3905 57.8647Z" fill="black"/>
</svg>
