<svg width="114" height="114" viewBox="0 0 114 114" fill="none" xmlns="http://www.w3.org/2000/svg">
<circle cx="57" cy="57" r="57" fill="#88CB7C" fill-opacity="0.35"/>
<g clip-path="url(#clip0)">
<path d="M84.8708 57.5948C84.2693 51.5441 81.5661 45.8397 77.2589 41.5324C73.578 37.8516 69.0727 35.4863 64.3321 34.4346V31.1097C66.2684 30.628 67.7076 28.8753 67.7076 26.7922C67.7076 24.3388 65.7117 22.3429 63.2583 22.3429H53.8363C51.3829 22.3429 49.387 24.3388 49.387 26.7922C49.387 28.8752 50.8262 30.6278 52.7623 31.1097V34.4439C48.0362 35.5001 43.5458 37.8621 39.8754 41.5325C39.0722 42.3357 38.3315 43.1784 37.6536 44.0541C37.6207 44.0516 37.5879 44.0491 37.5544 44.0491H28.229C27.5064 44.0491 26.9204 44.635 26.9204 45.3577C26.9204 46.0805 27.5064 46.6663 28.229 46.6663H35.8729C34.9134 48.2727 34.1398 49.9596 33.5509 51.6961H19.3086C18.586 51.6961 18 52.282 18 53.0047C18 53.7275 18.586 54.3134 19.3086 54.3134H32.8114C32.4343 55.9689 32.2178 57.6537 32.162 59.3433H26.3751C25.6525 59.3433 25.0665 59.9291 25.0665 60.6519C25.0665 61.3746 25.6525 61.9605 26.3751 61.9605H32.2037C32.3141 63.6544 32.5865 65.3393 33.0208 66.9904H24.5431C23.8205 66.9904 23.2345 67.5763 23.2345 68.299C23.2345 69.0218 23.8205 69.6077 24.5431 69.6077H33.856C35.1397 73.0036 37.1459 76.1866 39.8754 78.9161C44.1868 83.2274 49.8971 85.9313 55.9541 86.5297C56.8186 86.6151 57.6837 86.6573 58.5477 86.6573C63.6541 86.6573 68.6957 85.1795 72.9736 82.3937C73.5792 81.9993 73.7505 81.1886 73.3561 80.583C72.9617 79.9774 72.151 79.8061 71.5453 80.2005C62.1813 86.2982 49.6405 84.9798 41.7261 77.0654C32.4399 67.7793 32.4399 52.6696 41.7261 43.3833C51.0121 34.0972 66.1218 34.0972 75.4081 43.3833C83.312 51.2873 84.6376 63.8174 78.56 73.1769C78.1664 73.783 78.3388 74.5936 78.9448 74.9871C79.5512 75.3807 80.3615 75.2084 80.755 74.6022C84.0022 69.6014 85.4639 63.5615 84.8708 57.5948ZM52.0042 26.7923C52.0042 25.782 52.826 24.9602 53.8363 24.9602H63.2583C64.2685 24.9602 65.0904 25.782 65.0904 26.7923C65.0904 27.8025 64.2685 28.6243 63.2583 28.6243H63.0235H54.0709H53.8363C52.826 28.6243 52.0042 27.8024 52.0042 26.7923ZM55.3795 33.994V31.2416H61.7149V33.9893C59.6112 33.7391 57.4829 33.7406 55.3795 33.994Z" fill="black"/>
<path d="M76.3341 76.6815C75.9886 76.6815 75.6523 76.8215 75.409 77.0649C75.1643 77.3083 75.0255 77.646 75.0255 77.9901C75.0255 78.3343 75.1643 78.6719 75.409 78.9153C75.6523 79.16 75.9887 79.2987 76.3341 79.2987C76.6782 79.2987 77.0145 79.16 77.2593 78.9153C77.5027 78.6719 77.6427 78.3343 77.6427 77.9901C77.6427 77.646 77.5028 77.3083 77.2593 77.0649C77.0145 76.8215 76.6781 76.6815 76.3341 76.6815Z" fill="black"/>
<path d="M58.5672 39.9237C47.3735 39.9237 38.2668 49.0304 38.2668 60.2241C38.2668 71.4179 47.3735 80.5245 58.5672 80.5245C69.7608 80.5245 78.8676 71.4179 78.8676 60.2241C78.8676 49.0304 69.7608 39.9237 58.5672 39.9237ZM58.5672 77.9073C48.8165 77.9073 40.884 69.9746 40.884 60.2241C40.884 50.4737 48.8165 42.541 58.5672 42.541C68.3178 42.541 76.2503 50.4737 76.2503 60.2241C76.2503 69.9746 68.3178 77.9073 58.5672 77.9073Z" fill="black"/>
<path d="M66.8449 50.0957L60.3634 56.5772C59.8214 56.3092 59.2117 56.1578 58.5672 56.1578C57.9226 56.1578 57.313 56.3092 56.771 56.5772L53.8702 53.6764C53.359 53.1653 52.5307 53.1653 52.0194 53.6764C51.5084 54.1874 51.5084 55.016 52.0194 55.527L54.9202 58.4278C54.6521 58.9698 54.5008 59.5795 54.5008 60.224C54.5008 62.4662 56.3249 64.2904 58.5672 64.2904C60.8095 64.2904 62.6336 62.4662 62.6336 60.224C62.6336 59.5795 62.4822 58.9698 62.2142 58.4278L68.5055 52.1365L68.6956 51.9464C69.2066 51.4354 69.2066 50.6067 68.6956 50.0957C68.1846 49.5847 67.3562 49.5847 66.8449 50.0957ZM58.5672 61.6733C57.7681 61.6733 57.118 61.0232 57.118 60.2241C57.118 59.4251 57.7681 58.775 58.5672 58.775C59.3662 58.775 60.0163 59.4251 60.0163 60.2241C60.0163 61.0232 59.3662 61.6733 58.5672 61.6733Z" fill="black"/>
<path d="M72.5587 58.9315H71.3463C70.6237 58.9315 70.0377 59.5173 70.0377 60.2401C70.0377 60.9628 70.6237 61.5487 71.3463 61.5487H72.5587C73.2813 61.5487 73.8673 60.9628 73.8673 60.2401C73.8673 59.5173 73.2813 58.9315 72.5587 58.9315Z" fill="black"/>
<path d="M45.7878 58.8995H44.5756C43.853 58.8995 43.267 59.4854 43.267 60.2081C43.267 60.9309 43.853 61.5167 44.5756 61.5167H45.7878C46.5104 61.5167 47.0964 60.9309 47.0964 60.2081C47.0964 59.4854 46.5104 58.8995 45.7878 58.8995Z" fill="black"/>
<path d="M58.5831 48.7534C59.3057 48.7534 59.8917 48.1675 59.8917 47.4448V46.2325C59.8917 45.5098 59.3057 44.9239 58.5831 44.9239C57.8605 44.9239 57.2745 45.5098 57.2745 46.2325V47.4448C57.2745 48.1675 57.8605 48.7534 58.5831 48.7534Z" fill="black"/>
<path d="M58.5512 71.6948C57.8286 71.6948 57.2426 72.2807 57.2426 73.0034V74.2157C57.2426 74.9384 57.8286 75.5243 58.5512 75.5243C59.2738 75.5243 59.8598 74.9384 59.8598 74.2157V73.0034C59.8598 72.2807 59.2738 71.6948 58.5512 71.6948Z" fill="black"/>
<path d="M19.3086 66.9899C18.9644 66.9899 18.6268 67.1299 18.3834 67.3733C18.14 67.6167 18 67.9544 18 68.2985C18 68.644 18.1399 68.9803 18.3834 69.2237C18.6269 69.4671 18.9644 69.6071 19.3086 69.6071C19.6528 69.6071 19.9904 69.4671 20.2336 69.2237C20.477 68.9803 20.6172 68.6427 20.6172 68.2985C20.6172 67.9544 20.4772 67.6167 20.2336 67.3733C19.9904 67.1299 19.6528 66.9899 19.3086 66.9899Z" fill="black"/>
</g>
<defs>
<clipPath id="clip0">
<rect width="67" height="67" fill="white" transform="translate(18 21)"/>
</clipPath>
</defs>
</svg>
