<svg width="114" height="114" viewBox="0 0 114 114" fill="none" xmlns="http://www.w3.org/2000/svg">
<circle cx="57" cy="57" r="57" fill="#FBEBBE"/>
<g clip-path="url(#clip0)">
<path d="M86.8057 63.244H85.8031V54.2127C85.8031 52.7829 85.0915 51.517 84.0047 50.7478V49.5181C84.0047 47.7344 82.5536 46.2833 80.7698 46.2833H80.0212L82.8856 42.0801C83.8457 40.6712 83.4806 38.7438 82.0717 37.7836L62.6351 24.538C61.9526 24.0728 61.1301 23.9011 60.3182 24.0551C59.5067 24.2089 58.8036 24.6694 58.3386 25.3519L41.5623 49.9696H36.8939L38.0202 38.5678C38.0329 38.4393 38.1163 38.328 38.2328 38.2841C39.6839 37.737 40.9415 36.7152 41.7737 35.4072C41.8393 35.3042 41.963 35.2453 42.0909 35.2583L49.4132 35.9816C49.9382 36.0325 50.4052 35.6502 50.457 35.1254C50.5089 34.6007 50.1256 34.1334 49.6008 34.0816L42.2786 33.3582C41.4287 33.2749 40.6181 33.6666 40.1627 34.3821C39.5508 35.344 38.6262 36.0951 37.5593 36.4974C36.7562 36.8002 36.2047 37.5215 36.12 38.38L34.9752 49.9695H33.7578L35.5391 31.9365C35.6032 31.2875 36.1825 30.8106 36.8323 30.8756L51.6291 32.3373C52.1539 32.388 52.6212 32.0059 52.673 31.4811C52.7248 30.9564 52.3415 30.4891 51.8168 30.4373L37.02 28.9756C35.3235 28.8082 33.8065 30.052 33.6389 31.7487L32.2031 46.2833H29.758C27.9743 46.2833 26.5231 47.7344 26.5231 49.5181V50.3569C25.0639 51.0288 24.0479 52.5038 24.0479 54.2127V86.7568C24.0479 89.0965 25.9514 91 28.2913 91H81.5598C83.8996 91 85.8031 89.0965 85.8031 86.7568V77.7257H86.8057C87.9892 77.7257 88.9519 76.7629 88.9519 75.5796V65.3902C88.9521 64.2067 87.9892 63.244 86.8057 63.244ZM80.7698 48.1928C81.5008 48.1927 82.0953 48.7873 82.0953 49.5183V50.0047C81.9197 49.9824 81.7413 49.9697 81.5598 49.9697H77.5091L78.7199 48.1928H80.7698ZM59.9163 26.4271C60.0943 26.166 60.3632 25.9899 60.6736 25.931C60.7478 25.917 60.8223 25.9099 60.8962 25.9099C61.1314 25.9099 61.3612 25.9803 61.5598 26.1156L80.9965 39.3612C81.5354 39.7285 81.6751 40.4658 81.3079 41.0047L75.1986 49.9693H73.7325L76.7277 45.5742C77.2135 44.8614 77.2535 43.9542 76.8319 43.2066C76.2715 42.2134 76.0444 41.0439 76.1922 39.9134C76.3022 39.0724 75.9321 38.2514 75.2265 37.7706L65.1506 30.9042C64.4449 30.4233 63.5453 30.3792 62.8028 30.7891C61.805 31.3401 60.6334 31.5564 59.5041 31.3983C58.6666 31.2808 57.8172 31.659 57.3387 32.361L45.339 49.9695H43.8728L59.9163 26.4271ZM60.3368 42.6394C56.1793 42.6394 52.7664 45.8812 52.4884 49.9695H47.6493L58.9162 33.4363C58.9163 33.4363 58.9163 33.4363 58.9163 33.4363C58.9803 33.3422 59.0864 33.2862 59.1954 33.2862C59.21 33.2862 59.2245 33.2872 59.239 33.2892C60.775 33.5041 62.3682 33.2102 63.7255 32.4607C63.8323 32.4016 63.9694 32.4101 64.0752 32.4821L74.1512 39.3487C74.2567 39.4206 74.3147 39.5452 74.299 39.6661C74.0978 41.2036 74.4069 42.7941 75.1689 44.1448C75.23 44.2533 75.2226 44.3922 75.1501 44.4989L71.4221 49.9693H68.1856C67.9073 45.8812 64.4946 42.6394 60.3368 42.6394ZM66.271 49.9696H54.4027C54.6762 46.9351 57.2324 44.5489 60.3368 44.5489C63.4413 44.5487 65.9976 46.9351 66.271 49.9696ZM28.4325 49.5181C28.4325 48.7871 29.027 48.1925 29.758 48.1925H32.0145L31.839 49.9695H28.4325V49.5181ZM25.9573 54.2127C25.9573 52.9258 27.0043 51.8788 28.2913 51.8788H81.5598C82.8468 51.8788 83.8937 52.9258 83.8937 54.2127V56.8618H25.9573V54.2127ZM83.8937 86.7568C83.8937 88.0437 82.8468 89.0907 81.5598 89.0907H28.2913C27.0043 89.0907 25.9573 88.0437 25.9573 86.7568V84.1077H31.1056C31.6329 84.1077 32.0602 83.6803 32.0602 83.153C32.0602 82.6258 31.6328 82.1984 31.1056 82.1984H25.9573V58.7712H83.8937V63.244H74.8165H74.8164C71.9563 63.244 69.4789 64.9111 68.3031 67.3243C68.2992 67.3324 68.2947 67.3403 68.2907 67.3484C68.2807 67.3689 68.2721 67.3903 68.2624 67.4109C68.1224 67.7084 68.0007 68.0163 67.9016 68.334C67.9014 68.3349 67.9011 68.3357 67.9009 68.3366C67.6895 69.0157 67.5755 69.7371 67.5755 70.4848C67.5755 74.4775 70.8237 77.7257 74.8162 77.7257H74.8164H83.8936V82.1984H37.2185C36.6912 82.1984 36.2639 82.6258 36.2639 83.153C36.2639 83.6803 36.6913 84.1077 37.2185 84.1077H83.8937V86.7568ZM87.0427 75.5794C87.0427 75.71 86.9364 75.8163 86.8057 75.8163H74.8166C72.7955 75.8163 71.0334 74.6858 70.1295 73.024C70.0884 72.9485 70.0492 72.8718 70.0116 72.7942C69.9366 72.6389 69.869 72.4794 69.8092 72.3161C69.5995 71.7447 69.4852 71.1279 69.4852 70.4848C69.4852 69.8418 69.5997 69.2249 69.8092 68.6536C69.8691 68.4904 69.9368 68.3309 70.0116 68.1754C70.0492 68.0978 70.0884 68.0211 70.1295 67.9456C71.0334 66.2838 72.7955 65.1533 74.8166 65.1533H86.8057C86.9363 65.1533 87.0427 65.2596 87.0427 65.3902V75.5794Z" fill="black"/>
<path d="M75.0403 66.6114C72.9044 66.6114 71.1669 68.349 71.1669 70.4848C71.1669 72.6206 72.9044 74.3581 75.0403 74.3581C77.1762 74.3581 78.9138 72.6206 78.9138 70.4848C78.9138 68.349 77.1762 66.6114 75.0403 66.6114ZM75.0403 72.4487C73.9573 72.4487 73.0762 71.5677 73.0762 70.4848C73.0762 69.4019 73.9573 68.5207 75.0403 68.5207C76.1233 68.5207 77.0044 69.4018 77.0044 70.4848C77.0044 71.5678 76.1233 72.4487 75.0403 72.4487Z" fill="black"/>
</g>
<defs>
<clipPath id="clip0">
<rect width="67" height="67" fill="white" transform="translate(23 24)"/>
</clipPath>
</defs>
</svg>
