<svg width="12" height="12" viewBox="0 0 12 12" fill="none" xmlns="http://www.w3.org/2000/svg">
<path d="M10.5938 0.9375H10.0312V0H9.09375V0.9375H2.90625V0H1.96875V0.9375H1.40625C0.630844 0.9375 0 1.56834 0 2.34375V10.5938C0 11.3692 0.630844 12 1.40625 12H10.5938C11.3692 12 12 11.3692 12 10.5938V2.34375C12 1.56834 11.3692 0.9375 10.5938 0.9375ZM11.0625 10.5938C11.0625 10.8522 10.8522 11.0625 10.5938 11.0625H1.40625C1.14778 11.0625 0.9375 10.8522 0.9375 10.5938V4.40625H11.0625V10.5938ZM11.0625 3.46875H0.9375V2.34375C0.9375 2.08528 1.14778 1.875 1.40625 1.875H1.96875V2.8125H2.90625V1.875H9.09375V2.8125H10.0312V1.875H10.5938C10.8522 1.875 11.0625 2.08528 11.0625 2.34375V3.46875Z" fill="black"/>
</svg>
