<svg width="17" height="18" viewBox="0 0 17 18" fill="none" xmlns="http://www.w3.org/2000/svg">
<g clip-path="url(#clip0)">
<path d="M16.8962 5.82325L11.5837 2.07325C11.4454 1.97558 11.2213 1.97558 11.0829 2.07325C10.9446 2.17091 10.9446 2.32912 11.0829 2.42676L15.7909 5.75H0.354178C0.158412 5.75 0 5.86183 0 6.00001C0 6.1382 0.158412 6.25002 0.354178 6.25002H15.7909L11.0829 9.57325C10.9446 9.67091 10.9446 9.82911 11.0829 9.92675C11.1521 9.97557 11.2427 10 11.3334 10C11.424 10 11.5146 9.97557 11.5838 9.92675L16.8963 6.17675C17.0346 6.07911 17.0346 5.92091 16.8962 5.82325Z" fill="black"/>
</g>
<g clip-path="url(#clip1)">
<path d="M0.10376 11.8232L5.41626 8.07325C5.55462 7.97558 5.77874 7.97558 5.91706 8.07325C6.05542 8.17091 6.05542 8.32912 5.91706 8.42676L1.20912 11.75H16.6458C16.8416 11.75 17 11.8618 17 12C17 12.1382 16.8416 12.25 16.6458 12.25H1.20912L5.91706 15.5732C6.05542 15.6709 6.05542 15.8291 5.91706 15.9268C5.8479 15.9756 5.75726 16 5.66664 16C5.57603 16 5.48542 15.9756 5.41623 15.9268L0.103725 12.1768C-0.0345974 12.0791 -0.0345974 11.9209 0.10376 11.8232Z" fill="black"/>
</g>
<defs>
<clipPath id="clip0">
<rect width="17" height="12" fill="white"/>
</clipPath>
<clipPath id="clip1">
<rect width="17" height="12" fill="white" transform="matrix(-1 0 0 1 17 6)"/>
</clipPath>
</defs>
</svg>
