<svg width="103" height="36" viewBox="0 0 103 36" fill="none" xmlns="http://www.w3.org/2000/svg">
<rect width="50" height="36" rx="7" fill="#443434"/>
<path d="M65.746 24.592H61.858V34.78H58.906V24.592H55V22H65.746V24.592Z" fill="url(#paint0_linear)"/>
<path d="M72.3676 27.796C71.6716 27.808 71.0416 27.922 70.4776 28.138C69.9136 28.354 69.5056 28.678 69.2536 29.11V34.78H66.3736V25.33H69.0196V27.238C69.3436 26.602 69.7636 26.104 70.2796 25.744C70.7956 25.384 71.3356 25.198 71.8996 25.186C72.1396 25.186 72.2956 25.192 72.3676 25.204V27.796Z" fill="url(#paint1_linear)"/>
<path d="M72.9163 31.954C72.9163 31.33 73.0903 30.784 73.4383 30.316C73.7863 29.848 74.2663 29.482 74.8783 29.218C75.4903 28.942 76.1923 28.804 76.9843 28.804C77.3683 28.804 77.7463 28.84 78.1183 28.912C78.4903 28.972 78.8143 29.062 79.0903 29.182V28.768C79.0903 27.7 78.4603 27.166 77.2003 27.166C76.6723 27.166 76.1743 27.256 75.7063 27.436C75.2503 27.616 74.7643 27.874 74.2483 28.21L73.3843 26.374C74.6323 25.558 76.0003 25.15 77.4883 25.15C78.9043 25.15 80.0023 25.492 80.7823 26.176C81.5743 26.848 81.9703 27.826 81.9703 29.11V31.576C81.9703 31.864 82.0123 32.068 82.0963 32.188C82.1923 32.308 82.3543 32.374 82.5823 32.386V34.78C82.3303 34.828 82.1023 34.864 81.8983 34.888C81.6943 34.912 81.5143 34.924 81.3583 34.924C80.8183 34.924 80.4043 34.816 80.1163 34.6C79.8403 34.384 79.6663 34.09 79.5943 33.718L79.5403 33.304C79.1203 33.844 78.6163 34.258 78.0283 34.546C77.4403 34.822 76.8343 34.96 76.2103 34.96C75.5863 34.96 75.0223 34.828 74.5183 34.564C74.0263 34.3 73.6363 33.946 73.3483 33.502C73.0603 33.046 72.9163 32.53 72.9163 31.954ZM78.6403 32.314C78.9403 32.074 79.0903 31.828 79.0903 31.576V30.73C78.8383 30.634 78.5623 30.562 78.2623 30.514C77.9743 30.454 77.7103 30.424 77.4703 30.424C76.9303 30.424 76.4863 30.544 76.1383 30.784C75.8023 31.024 75.6343 31.33 75.6343 31.702C75.6343 32.026 75.7603 32.308 76.0123 32.548C76.2763 32.776 76.6243 32.89 77.0563 32.89C77.3443 32.89 77.6323 32.836 77.9203 32.728C78.2083 32.62 78.4483 32.482 78.6403 32.314Z" fill="url(#paint2_linear)"/>
<path d="M93.1652 34.78H90.2852V29.47C90.2852 28.846 90.1652 28.396 89.9252 28.12C89.6972 27.832 89.3912 27.688 89.0072 27.688C88.6112 27.688 88.2092 27.844 87.8012 28.156C87.3932 28.468 87.1052 28.87 86.9372 29.362V34.78H84.0572V25.33H86.6492V26.914C86.9972 26.362 87.4892 25.93 88.1252 25.618C88.7612 25.306 89.4932 25.15 90.3212 25.15C90.9332 25.15 91.4252 25.264 91.7972 25.492C92.1812 25.708 92.4692 25.996 92.6612 26.356C92.8652 26.704 92.9972 27.088 93.0572 27.508C93.1292 27.928 93.1652 28.336 93.1652 28.732V34.78Z" fill="url(#paint3_linear)"/>
<path d="M98.6967 34.96C97.8807 34.96 97.0887 34.828 96.3207 34.564C95.5647 34.288 94.9227 33.898 94.3947 33.394L95.3847 31.576C96.5487 32.428 97.6227 32.854 98.6067 32.854C98.9787 32.854 99.2667 32.794 99.4707 32.674C99.6747 32.554 99.7767 32.368 99.7767 32.116C99.7767 31.852 99.6387 31.666 99.3627 31.558C99.0867 31.438 98.6787 31.3 98.1387 31.144C97.4187 30.904 96.8187 30.67 96.3387 30.442C95.8587 30.214 95.4987 29.938 95.2587 29.614C95.0187 29.29 94.8987 28.858 94.8987 28.318C94.8987 27.37 95.2527 26.608 95.9607 26.032C96.6687 25.444 97.6287 25.15 98.8407 25.15C99.4887 25.15 100.119 25.252 100.731 25.456C101.355 25.66 101.937 26.002 102.477 26.482L101.361 28.282C100.821 27.91 100.341 27.64 99.9207 27.472C99.5007 27.304 99.0927 27.22 98.6967 27.22C98.3847 27.22 98.1207 27.28 97.9047 27.4C97.6887 27.508 97.5807 27.7 97.5807 27.976C97.5807 28.24 97.7007 28.438 97.9407 28.57C98.1807 28.69 98.5527 28.822 99.0567 28.966C99.8247 29.194 100.467 29.428 100.983 29.668C101.511 29.896 101.901 30.184 102.153 30.532C102.417 30.868 102.549 31.318 102.549 31.882C102.549 32.842 102.201 33.598 101.505 34.15C100.809 34.69 99.8727 34.96 98.6967 34.96Z" fill="url(#paint4_linear)"/>
<path d="M65.79 13.724C65.79 14.456 65.592 15.068 65.196 15.56C64.8 16.04 64.272 16.4 63.612 16.64C62.964 16.88 62.244 17 61.452 17H55.224V4.22H62.334C62.934 4.22 63.45 4.382 63.882 4.706C64.314 5.018 64.65 5.426 64.89 5.93C65.13 6.434 65.25 6.956 65.25 7.496C65.25 8.096 65.094 8.672 64.782 9.224C64.47 9.776 64.014 10.184 63.414 10.448C64.134 10.664 64.71 11.048 65.142 11.6C65.574 12.152 65.79 12.86 65.79 13.724ZM58.176 6.74V9.386H61.074C61.398 9.386 61.686 9.278 61.938 9.062C62.19 8.846 62.316 8.51 62.316 8.054C62.316 7.634 62.202 7.31 61.974 7.082C61.758 6.854 61.494 6.74 61.182 6.74H58.176ZM62.784 13.13C62.784 12.734 62.67 12.398 62.442 12.122C62.214 11.846 61.926 11.708 61.578 11.708H58.176V14.498H61.452C61.824 14.498 62.136 14.372 62.388 14.12C62.652 13.856 62.784 13.526 62.784 13.13ZM67.1344 13.598V7.55H70.0144V12.968C70.0144 14.156 70.4524 14.75 71.3284 14.75C71.7124 14.75 72.0844 14.648 72.4444 14.444C72.8044 14.228 73.1224 13.874 73.3984 13.382V7.55H76.2784V13.796C76.2784 14.084 76.3204 14.288 76.4044 14.408C76.5004 14.528 76.6624 14.594 76.8904 14.606V17C76.6144 17.048 76.3804 17.084 76.1884 17.108C75.9964 17.132 75.8224 17.144 75.6664 17.144C74.6344 17.144 74.0464 16.742 73.9024 15.938L73.8484 15.362C73.4164 15.986 72.8764 16.448 72.2284 16.748C71.5924 17.036 70.8784 17.18 70.0864 17.18C69.1264 17.18 68.3944 16.874 67.8904 16.262C67.3864 15.65 67.1344 14.762 67.1344 13.598ZM82.1275 17.18C81.3115 17.18 80.5195 17.048 79.7515 16.784C78.9955 16.508 78.3535 16.118 77.8255 15.614L78.8155 13.796C79.9795 14.648 81.0535 15.074 82.0375 15.074C82.4095 15.074 82.6975 15.014 82.9015 14.894C83.1055 14.774 83.2075 14.588 83.2075 14.336C83.2075 14.072 83.0695 13.886 82.7935 13.778C82.5175 13.658 82.1095 13.52 81.5695 13.364C80.8495 13.124 80.2495 12.89 79.7695 12.662C79.2895 12.434 78.9295 12.158 78.6895 11.834C78.4495 11.51 78.3295 11.078 78.3295 10.538C78.3295 9.59 78.6835 8.828 79.3915 8.252C80.0995 7.664 81.0595 7.37 82.2715 7.37C82.9195 7.37 83.5495 7.472 84.1615 7.676C84.7855 7.88 85.3675 8.222 85.9075 8.702L84.7915 10.502C84.2515 10.13 83.7715 9.86 83.3515 9.692C82.9315 9.524 82.5235 9.44 82.1275 9.44C81.8155 9.44 81.5515 9.5 81.3355 9.62C81.1195 9.728 81.0115 9.92 81.0115 10.196C81.0115 10.46 81.1315 10.658 81.3715 10.79C81.6115 10.91 81.9835 11.042 82.4875 11.186C83.2555 11.414 83.8975 11.648 84.4135 11.888C84.9415 12.116 85.3315 12.404 85.5835 12.752C85.8475 13.088 85.9795 13.538 85.9795 14.102C85.9795 15.062 85.6315 15.818 84.9355 16.37C84.2395 16.91 83.3035 17.18 82.1275 17.18Z" fill="url(#paint5_linear)"/>
<path d="M38.1288 9.19585H36.1493V16.0063H36.9407V19.1336H35.4363V8.8004C35.4369 6.7013 33.735 5 31.6359 5H19.1251C17.0266 5 15.3247 6.7013 15.3247 8.8004V18.9356H14.0183V15.6091H14.8496V8.8004H12.8706V15.6091H13.7019V19.2531H15.3247V26.6963C15.3247 28.134 16.125 29.3871 17.3043 30.0321V31.9994H20.6296V30.4961H30.0518V32H33.3782V30.0702C34.6003 29.4398 35.4363 28.1656 35.4363 26.6957V19.4494H37.2577V16.0057H38.1288V9.19585ZM21.0262 5.7909H29.8936V7.85074H21.0262V5.7909ZM21.9758 26.537H17.067V24.3213H21.9758V26.537ZM33.8527 26.537H28.9439V24.3213H33.8527V26.537ZM33.8527 19.4107C33.8527 19.4107 32.9025 22.4202 25.3017 22.4202C17.6997 22.4202 16.9077 19.4107 16.9077 19.4107V8.95799H33.8527V19.4107Z" fill="white"/>
<defs>
<linearGradient id="paint0_linear" x1="80.784" y1="17.78" x2="80.784" y2="36.78" gradientUnits="userSpaceOnUse">
<stop stop-color="#3C6029"/>
<stop offset="1" stop-color="#415B33" stop-opacity="0.54"/>
</linearGradient>
<linearGradient id="paint1_linear" x1="80.784" y1="17.78" x2="80.784" y2="36.78" gradientUnits="userSpaceOnUse">
<stop stop-color="#3C6029"/>
<stop offset="1" stop-color="#415B33" stop-opacity="0.54"/>
</linearGradient>
<linearGradient id="paint2_linear" x1="80.784" y1="17.78" x2="80.784" y2="36.78" gradientUnits="userSpaceOnUse">
<stop stop-color="#3C6029"/>
<stop offset="1" stop-color="#415B33" stop-opacity="0.54"/>
</linearGradient>
<linearGradient id="paint3_linear" x1="80.784" y1="17.78" x2="80.784" y2="36.78" gradientUnits="userSpaceOnUse">
<stop stop-color="#3C6029"/>
<stop offset="1" stop-color="#415B33" stop-opacity="0.54"/>
</linearGradient>
<linearGradient id="paint4_linear" x1="80.784" y1="17.78" x2="80.784" y2="36.78" gradientUnits="userSpaceOnUse">
<stop stop-color="#3C6029"/>
<stop offset="1" stop-color="#415B33" stop-opacity="0.54"/>
</linearGradient>
<linearGradient id="paint5_linear" x1="73.5" y1="0" x2="73.5" y2="19" gradientUnits="userSpaceOnUse">
<stop stop-color="#36689B" stop-opacity="0.7"/>
<stop offset="1" stop-color="#36689B"/>
</linearGradient>
</defs>
</svg>
