<svg width="19" height="19" viewBox="0 0 19 19" fill="none" xmlns="http://www.w3.org/2000/svg">
<path d="M5.04688 7.79297C4.12604 7.79297 3.37695 8.54206 3.37695 9.46289V13.9902C3.37695 14.9111 4.12604 15.6602 5.04688 15.6602C5.96771 15.6602 6.7168 14.9111 6.7168 13.9902V9.46289C6.7168 8.54206 5.96771 7.79297 5.04688 7.79297Z" fill="#131D17"/>
<path d="M2.26367 9.46298C2.26367 9.30241 2.28486 9.14729 2.3111 8.99414C1.64023 9.21097 1.15039 9.83411 1.15039 10.5763V12.877C1.15039 13.6192 1.64023 14.2423 2.3111 14.4592C2.28486 14.306 2.26367 14.1509 2.26367 13.9903V9.46298Z" fill="#131D17"/>
<path d="M13.9531 7.79297C13.0323 7.79297 12.2832 8.54206 12.2832 9.46289V13.9902C12.2832 14.9111 13.0323 15.6602 13.9531 15.6602C14.1205 15.6602 14.279 15.6279 14.4315 15.5819C14.2243 16.2688 13.5933 16.7734 12.8398 16.7734H11.0674C10.8368 16.1269 10.2247 15.6602 9.5 15.6602C8.57917 15.6602 7.83008 16.4092 7.83008 17.3301C7.83008 18.2509 8.57917 19 9.5 19C10.2247 19 10.8368 18.5332 11.0674 17.8867H12.8398C14.3744 17.8867 15.623 16.6381 15.623 15.1035V13.9902V9.46289C15.623 8.54206 14.874 7.79297 13.9531 7.79297Z" fill="#131D17"/>
<path d="M16.6889 8.99414C16.7151 9.14729 16.7363 9.30241 16.7363 9.46298V13.9903C16.7363 14.1509 16.7151 14.306 16.6889 14.4592C17.3598 14.2423 17.8496 13.6192 17.8496 12.877V10.5763C17.8496 9.83411 17.3598 9.21097 16.6889 8.99414Z" fill="#131D17"/>
<path d="M9.5 0C4.89577 0 1.15039 3.74538 1.15039 8.34961V8.36382C1.48204 8.11274 1.86575 7.92901 2.28917 7.84674C2.54934 4.09135 5.67974 1.11328 9.5 1.11328C13.3203 1.11328 16.4507 4.09135 16.7108 7.8467C17.1342 7.92897 17.5179 8.11274 17.8496 8.36379V8.34961C17.8496 3.74538 14.1042 0 9.5 0Z" fill="#131D17"/>
</svg>
