<svg width="16" height="16" viewBox="0 0 16 16" fill="none" xmlns="http://www.w3.org/2000/svg">
<path d="M8 0.000976562C3.58218 0.000976562 0 3.58246 0 8.00063C0 12.4188 3.58183 16.0003 8 16.0003C12.4185 16.0003 16 12.4188 16 8.00063C16 3.58246 12.4185 0.000976562 8 0.000976562ZM8 2.39296C9.46183 2.39296 10.6464 3.57789 10.6464 5.03902C10.6464 6.50049 9.46183 7.68507 8 7.68507C6.53887 7.68507 5.3543 6.50049 5.3543 5.03902C5.3543 3.57789 6.53887 2.39296 8 2.39296ZM7.99824 13.9087C6.54028 13.9087 5.20495 13.3778 4.175 12.4989C3.9241 12.2849 3.77932 11.9711 3.77932 11.6418C3.77932 10.16 4.97865 8.97401 6.46086 8.97401H9.53984C11.0224 8.97401 12.2172 10.16 12.2172 11.6418C12.2172 11.9715 12.0731 12.2846 11.8218 12.4986C10.7922 13.3778 9.45656 13.9087 7.99824 13.9087Z" fill="#131D17"/>
</svg>
