<svg width="13" height="12" viewBox="0 0 13 12" fill="none" xmlns="http://www.w3.org/2000/svg">
<g clip-path="url(#clip0)">
<path d="M12.5622 9.93104H0.2204C0.0986905 9.93104 0 9.83839 0 9.72413V2.27588C0 2.16162 0.0986905 2.06897 0.2204 2.06897H12.5622C12.6839 2.06897 12.7826 2.16162 12.7826 2.27588V9.72413C12.7826 9.83842 12.6839 9.93104 12.5622 9.93104Z" fill="#F5F5F5"/>
<path d="M12.7826 2.67377H0V2.27588C0 2.16162 0.0986905 2.06897 0.2204 2.06897H12.5622C12.6839 2.06897 12.7826 2.16162 12.7826 2.27588L12.7826 2.67377Z" fill="#FF4B55"/>
<path d="M12.7826 4.48804H0V5.09281H12.7826V4.48804Z" fill="#FF4B55"/>
<path d="M12.7826 3.27844H0V3.88322H12.7826V3.27844Z" fill="#FF4B55"/>
<path d="M12.7826 6.30243H0.2204C0.0986905 6.30243 0 6.20979 0 6.09553V5.69763H12.7826V6.30243Z" fill="#FF4B55"/>
<path d="M12.7826 8.11694H0V8.72172H12.7826V8.11694Z" fill="#FF4B55"/>
<path d="M12.5622 9.93108H0.2204C0.0986905 9.93108 0 9.83843 0 9.72417V9.32629H12.7826V9.72419C12.7826 9.83845 12.6839 9.93108 12.5622 9.93108Z" fill="#FF4B55"/>
<path d="M12.7826 6.90735H0V7.51213H12.7826V6.90735Z" fill="#FF4B55"/>
<path d="M5.73012 2.06897H0.2204C0.0986905 2.06897 0 2.16159 0 2.27585V6.09545C0 6.20971 0.0986905 6.30236 0.2204 6.30236H5.73014C5.85185 6.30236 5.95054 6.20971 5.95054 6.09545V2.27585C5.95052 2.16159 5.85183 2.06897 5.73012 2.06897Z" fill="#41479B"/>
<path d="M0.618885 2.54398L0.667669 2.68132L0.821884 2.68242C0.841856 2.68259 0.85012 2.70649 0.834067 2.71763L0.710011 2.80364L0.756548 2.94166C0.762589 2.95952 0.740894 2.97434 0.724641 2.96341L0.599187 2.87925L0.473733 2.96344C0.45748 2.97434 0.435835 2.95955 0.441827 2.94169L0.488363 2.80367L0.364307 2.71765C0.348254 2.70649 0.356518 2.68261 0.376491 2.68245L0.530706 2.68135L0.579489 2.544C0.58578 2.52619 0.612544 2.52619 0.618885 2.54398Z" fill="#F5F5F5"/>
<path d="M0.618885 3.26234L0.667669 3.39969L0.821884 3.40079C0.841856 3.40095 0.85012 3.42486 0.834067 3.43599L0.710011 3.52201L0.756548 3.66003C0.762589 3.67789 0.740894 3.6927 0.724641 3.68178L0.599187 3.59762L0.473733 3.6818C0.45748 3.6927 0.435835 3.67791 0.441827 3.66005L0.488363 3.52203L0.364307 3.43602C0.348254 3.42486 0.356518 3.40098 0.376491 3.40081L0.530706 3.39971L0.579489 3.26237C0.58578 3.24458 0.612544 3.24458 0.618885 3.26234Z" fill="#F5F5F5"/>
<path d="M0.618885 3.98073L0.667669 4.11807L0.821884 4.11917C0.841856 4.11934 0.85012 4.14325 0.834067 4.15438L0.710011 4.24039L0.756548 4.37842C0.762589 4.39628 0.740894 4.41109 0.724641 4.40017L0.599187 4.316L0.473733 4.40019C0.45748 4.41109 0.435835 4.3963 0.441827 4.37844L0.488363 4.24042L0.364307 4.1544C0.348254 4.14325 0.356518 4.11936 0.376491 4.1192L0.530706 4.1181L0.579489 3.98075C0.58578 3.96296 0.612544 3.96296 0.618885 3.98073Z" fill="#F5F5F5"/>
<path d="M0.618885 4.69925L0.667669 4.8366L0.821884 4.8377C0.841856 4.83786 0.85012 4.86177 0.834067 4.8729L0.710011 4.95892L0.756548 5.09694C0.762589 5.1148 0.740894 5.12961 0.724641 5.11869L0.599187 5.03452L0.473733 5.11871C0.45748 5.12961 0.435835 5.11482 0.441827 5.09696L0.488363 4.95894L0.364307 4.87292C0.348254 4.86177 0.356518 4.83788 0.376491 4.83772L0.530706 4.83662L0.579489 4.69928C0.58578 4.68146 0.612544 4.68146 0.618885 4.69925Z" fill="#F5F5F5"/>
<path d="M0.618885 5.41765L0.667669 5.555L0.821884 5.5561C0.841856 5.55626 0.85012 5.58017 0.834067 5.5913L0.710011 5.67732L0.756548 5.81534C0.762589 5.8332 0.740894 5.84801 0.724641 5.83709L0.599187 5.75293L0.473733 5.83711C0.45748 5.84801 0.435835 5.83322 0.441827 5.81536L0.488363 5.67734L0.364307 5.59132C0.348254 5.58017 0.356518 5.55629 0.376491 5.55612L0.530706 5.55502L0.579489 5.41768C0.58578 5.39984 0.612544 5.39984 0.618885 5.41765Z" fill="#F5F5F5"/>
<path d="M1.213 2.89614L1.26179 3.03348L1.416 3.03458C1.43597 3.03475 1.44424 3.05865 1.42818 3.06978L1.30413 3.1558L1.35066 3.29382C1.35671 3.31168 1.33501 3.3265 1.31876 3.31557L1.1933 3.23139L1.06785 3.31557C1.0516 3.32647 1.02995 3.31168 1.03594 3.29382L1.08248 3.1558L0.958424 3.06978C0.94237 3.05863 0.950634 3.03475 0.970607 3.03458L1.12482 3.03348L1.17361 2.89614C1.17987 2.87837 1.20669 2.87837 1.213 2.89614Z" fill="#F5F5F5"/>
<path d="M1.213 3.61466L1.26179 3.75201L1.416 3.75311C1.43597 3.75327 1.44424 3.77718 1.42818 3.78831L1.30413 3.87433L1.35066 4.01235C1.35671 4.03021 1.33501 4.04502 1.31876 4.0341L1.1933 3.94991L1.06785 4.0341C1.0516 4.045 1.02995 4.03023 1.03594 4.01235L1.08248 3.87433L0.958424 3.78831C0.94237 3.77715 0.950634 3.75327 0.970607 3.75311L1.12482 3.75201L1.17361 3.61466C1.17987 3.59687 1.20669 3.59687 1.213 3.61466Z" fill="#F5F5F5"/>
<path d="M1.213 4.33304L1.26179 4.47039L1.416 4.47149C1.43597 4.47165 1.44424 4.49556 1.42818 4.50669L1.30413 4.59271L1.35066 4.73073C1.35671 4.74859 1.33501 4.7634 1.31876 4.75248L1.1933 4.66829L1.06785 4.75248C1.0516 4.76338 1.02995 4.74859 1.03594 4.73073L1.08248 4.59271L0.958424 4.50669C0.94237 4.49553 0.950634 4.47165 0.970607 4.47149L1.12482 4.47039L1.17361 4.33304C1.17987 4.31525 1.20669 4.31525 1.213 4.33304Z" fill="#F5F5F5"/>
<path d="M1.213 5.05141L1.26179 5.18875L1.416 5.18986C1.43597 5.19002 1.44424 5.21393 1.42818 5.22506L1.30413 5.31108L1.35066 5.4491C1.35671 5.46696 1.33501 5.48177 1.31876 5.47085L1.1933 5.38666L1.06785 5.47085C1.0516 5.48175 1.02995 5.46696 1.03594 5.4491L1.08248 5.31108L0.958424 5.22506C0.94237 5.2139 0.950634 5.19002 0.970607 5.18986L1.12482 5.18875L1.17361 5.05141C1.17987 5.03364 1.20669 5.03364 1.213 5.05141Z" fill="#F5F5F5"/>
<path d="M1.80687 2.54386L1.85566 2.6812L2.00987 2.6823C2.02985 2.68247 2.03811 2.70637 2.02206 2.71751L1.898 2.80352L1.94454 2.94155C1.95058 2.95941 1.92888 2.97422 1.91263 2.9633L1.78718 2.87911L1.66172 2.9633C1.64547 2.97419 1.62382 2.95941 1.62982 2.94155L1.67635 2.80352L1.5523 2.71751C1.53624 2.70635 1.54451 2.68247 1.56448 2.6823L1.71869 2.6812L1.76748 2.54386C1.77377 2.52607 1.80056 2.52607 1.80687 2.54386Z" fill="#F5F5F5"/>
<path d="M1.80687 3.26235L1.85566 3.39969L2.00987 3.40079C2.02985 3.40096 2.03811 3.42486 2.02206 3.436L1.898 3.52201L1.94454 3.66003C1.95058 3.67789 1.92888 3.69271 1.91263 3.68178L1.78718 3.5976L1.66172 3.68178C1.64547 3.69268 1.62382 3.67789 1.62982 3.66003L1.67635 3.52201L1.5523 3.436C1.53624 3.42484 1.54451 3.40096 1.56448 3.40079L1.71869 3.39969L1.76748 3.26235C1.77377 3.24458 1.80056 3.24458 1.80687 3.26235Z" fill="#F5F5F5"/>
<path d="M1.80687 3.98085L1.85566 4.1182L2.00987 4.1193C2.02985 4.11946 2.03811 4.14337 2.02206 4.1545L1.898 4.24052L1.94454 4.37854C1.95058 4.3964 1.92888 4.41121 1.91263 4.40029L1.78718 4.3161L1.66172 4.40029C1.64547 4.41119 1.62382 4.3964 1.62982 4.37854L1.67635 4.24052L1.5523 4.1545C1.53624 4.14335 1.54451 4.11946 1.56448 4.1193L1.71869 4.1182L1.76748 3.98085C1.77377 3.96309 1.80056 3.96309 1.80687 3.98085Z" fill="#F5F5F5"/>
<path d="M1.80687 4.69925L1.85566 4.8366L2.00987 4.8377C2.02985 4.83786 2.03811 4.86177 2.02206 4.8729L1.898 4.95892L1.94454 5.09694C1.95058 5.1148 1.92888 5.12961 1.91263 5.11869L1.78718 5.0345L1.66172 5.11869C1.64547 5.12959 1.62382 5.1148 1.62982 5.09694L1.67635 4.95892L1.5523 4.8729C1.53624 4.86175 1.54451 4.83786 1.56448 4.8377L1.71869 4.8366L1.76748 4.69925C1.77377 4.68147 1.80056 4.68147 1.80687 4.69925Z" fill="#F5F5F5"/>
<path d="M1.80687 5.41766L1.85566 5.555L2.00987 5.5561C2.02985 5.55627 2.03811 5.58017 2.02206 5.5913L1.898 5.67732L1.94454 5.81534C1.95058 5.8332 1.92888 5.84802 1.91263 5.83709L1.78718 5.75291L1.66172 5.83709C1.64547 5.84799 1.62382 5.8332 1.62982 5.81534L1.67635 5.67732L1.5523 5.5913C1.53624 5.58015 1.54451 5.55627 1.56448 5.5561L1.71869 5.555L1.76748 5.41766C1.77377 5.39984 1.80056 5.39984 1.80687 5.41766Z" fill="#F5F5F5"/>
<path d="M2.40099 2.89614L2.44977 3.03348L2.60399 3.03458C2.62396 3.03475 2.63222 3.05865 2.61617 3.06978L2.49212 3.1558L2.53865 3.29382C2.54469 3.31168 2.523 3.3265 2.50675 3.31557L2.38129 3.23139L2.25584 3.31557C2.23958 3.32647 2.21794 3.31168 2.22393 3.29382L2.27047 3.1558L2.14641 3.06978C2.13036 3.05863 2.13862 3.03475 2.1586 3.03458L2.31281 3.03348L2.36159 2.89614C2.36786 2.87837 2.39467 2.87837 2.40099 2.89614Z" fill="#F5F5F5"/>
<path d="M2.40099 3.61466L2.44977 3.75201L2.60399 3.75311C2.62396 3.75327 2.63222 3.77718 2.61617 3.78831L2.49212 3.87433L2.53865 4.01235C2.54469 4.03021 2.523 4.04502 2.50675 4.0341L2.38129 3.94991L2.25584 4.0341C2.23958 4.045 2.21794 4.03023 2.22393 4.01235L2.27047 3.87433L2.14641 3.78831C2.13036 3.77715 2.13862 3.75327 2.1586 3.75311L2.31281 3.75201L2.36159 3.61466C2.36786 3.59687 2.39467 3.59687 2.40099 3.61466Z" fill="#F5F5F5"/>
<path d="M2.40099 4.33304L2.44977 4.47039L2.60399 4.47149C2.62396 4.47165 2.63222 4.49556 2.61617 4.50669L2.49212 4.59271L2.53865 4.73073C2.54469 4.74859 2.523 4.7634 2.50675 4.75248L2.38129 4.66829L2.25584 4.75248C2.23958 4.76338 2.21794 4.74859 2.22393 4.73073L2.27047 4.59271L2.14641 4.50669C2.13036 4.49553 2.13862 4.47165 2.1586 4.47149L2.31281 4.47039L2.36159 4.33304C2.36786 4.31525 2.39467 4.31525 2.40099 4.33304Z" fill="#F5F5F5"/>
<path d="M2.40099 5.05141L2.44977 5.18875L2.60399 5.18986C2.62396 5.19002 2.63222 5.21393 2.61617 5.22506L2.49212 5.31108L2.53865 5.4491C2.54469 5.46696 2.523 5.48177 2.50675 5.47085L2.38129 5.38666L2.25584 5.47085C2.23958 5.48175 2.21794 5.46696 2.22393 5.4491L2.27047 5.31108L2.14641 5.22506C2.13036 5.2139 2.13862 5.19002 2.1586 5.18986L2.31281 5.18875L2.36159 5.05141C2.36786 5.03364 2.39467 5.03364 2.40099 5.05141Z" fill="#F5F5F5"/>
<path d="M2.99501 2.54386L3.04379 2.6812L3.19801 2.6823C3.21798 2.68247 3.22624 2.70637 3.21019 2.71751L3.08614 2.80352L3.13267 2.94155C3.13871 2.95941 3.11702 2.97422 3.10077 2.9633L2.97529 2.87911L2.84983 2.9633C2.83358 2.97419 2.81193 2.95941 2.81793 2.94155L2.86446 2.80352L2.74041 2.71751C2.72435 2.70635 2.73262 2.68247 2.75259 2.6823L2.9068 2.6812L2.95559 2.54386C2.9619 2.52607 2.98869 2.52607 2.99501 2.54386Z" fill="#F5F5F5"/>
<path d="M2.99501 3.26235L3.04379 3.39969L3.19801 3.40079C3.21798 3.40096 3.22624 3.42486 3.21019 3.436L3.08614 3.52201L3.13267 3.66003C3.13871 3.67789 3.11702 3.69271 3.10077 3.68178L2.97529 3.5976L2.84983 3.68178C2.83358 3.69268 2.81193 3.67789 2.81793 3.66003L2.86446 3.52201L2.74041 3.436C2.72435 3.42484 2.73262 3.40096 2.75259 3.40079L2.9068 3.39969L2.95559 3.26235C2.9619 3.24458 2.98869 3.24458 2.99501 3.26235Z" fill="#F5F5F5"/>
<path d="M2.99501 3.98085L3.04379 4.1182L3.19801 4.1193C3.21798 4.11946 3.22624 4.14337 3.21019 4.1545L3.08614 4.24052L3.13267 4.37854C3.13871 4.3964 3.11702 4.41121 3.10077 4.40029L2.97529 4.3161L2.84983 4.40029C2.83358 4.41119 2.81193 4.3964 2.81793 4.37854L2.86446 4.24052L2.74041 4.1545C2.72435 4.14335 2.73262 4.11946 2.75259 4.1193L2.9068 4.1182L2.95559 3.98085C2.9619 3.96309 2.98869 3.96309 2.99501 3.98085Z" fill="#F5F5F5"/>
<path d="M2.99501 4.69925L3.04379 4.8366L3.19801 4.8377C3.21798 4.83786 3.22624 4.86177 3.21019 4.8729L3.08614 4.95892L3.13267 5.09694C3.13871 5.1148 3.11702 5.12961 3.10077 5.11869L2.97529 5.0345L2.84983 5.11869C2.83358 5.12959 2.81193 5.1148 2.81793 5.09694L2.86446 4.95892L2.74041 4.8729C2.72435 4.86175 2.73262 4.83786 2.75259 4.8377L2.9068 4.8366L2.95559 4.69925C2.9619 4.68147 2.98869 4.68147 2.99501 4.69925Z" fill="#F5F5F5"/>
<path d="M2.99501 5.41766L3.04379 5.555L3.19801 5.5561C3.21798 5.55627 3.22624 5.58017 3.21019 5.5913L3.08614 5.67732L3.13267 5.81534C3.13871 5.8332 3.11702 5.84802 3.10077 5.83709L2.97529 5.75291L2.84983 5.83709C2.83358 5.84799 2.81193 5.8332 2.81793 5.81534L2.86446 5.67732L2.74041 5.5913C2.72435 5.58015 2.73262 5.55627 2.75259 5.5561L2.9068 5.555L2.95559 5.41766C2.9619 5.39984 2.98869 5.39984 2.99501 5.41766Z" fill="#F5F5F5"/>
<path d="M3.58898 2.89614L3.63776 3.03348L3.79198 3.03458C3.81195 3.03475 3.82021 3.05865 3.80416 3.06978L3.6801 3.1558L3.72664 3.29382C3.73268 3.31168 3.71099 3.3265 3.69473 3.31557L3.56928 3.23139L3.44383 3.31557C3.42757 3.32647 3.40593 3.31168 3.41192 3.29382L3.45846 3.1558L3.3344 3.06978C3.31835 3.05863 3.32661 3.03475 3.34658 3.03458L3.5008 3.03348L3.54958 2.89614C3.5559 2.87837 3.58266 2.87837 3.58898 2.89614Z" fill="#F5F5F5"/>
<path d="M3.58898 3.61466L3.63776 3.75201L3.79198 3.75311C3.81195 3.75327 3.82021 3.77718 3.80416 3.78831L3.6801 3.87433L3.72664 4.01235C3.73268 4.03021 3.71099 4.04502 3.69473 4.0341L3.56928 3.94991L3.44383 4.0341C3.42757 4.045 3.40593 4.03023 3.41192 4.01235L3.45846 3.87433L3.3344 3.78831C3.31835 3.77715 3.32661 3.75327 3.34658 3.75311L3.5008 3.75201L3.54958 3.61466C3.5559 3.59687 3.58266 3.59687 3.58898 3.61466Z" fill="#F5F5F5"/>
<path d="M3.58898 4.33304L3.63776 4.47039L3.79198 4.47149C3.81195 4.47165 3.82021 4.49556 3.80416 4.50669L3.6801 4.59271L3.72664 4.73073C3.73268 4.74859 3.71099 4.7634 3.69473 4.75248L3.56928 4.66829L3.44383 4.75248C3.42757 4.76338 3.40593 4.74859 3.41192 4.73073L3.45846 4.59271L3.3344 4.50669C3.31835 4.49553 3.32661 4.47165 3.34658 4.47149L3.5008 4.47039L3.54958 4.33304C3.5559 4.31525 3.58266 4.31525 3.58898 4.33304Z" fill="#F5F5F5"/>
<path d="M3.58898 5.05141L3.63776 5.18875L3.79198 5.18986C3.81195 5.19002 3.82021 5.21393 3.80416 5.22506L3.6801 5.31108L3.72664 5.4491C3.73268 5.46696 3.71099 5.48177 3.69473 5.47085L3.56928 5.38666L3.44383 5.47085C3.42757 5.48175 3.40593 5.46696 3.41192 5.4491L3.45846 5.31108L3.3344 5.22506C3.31835 5.2139 3.32661 5.19002 3.34658 5.18986L3.5008 5.18875L3.54958 5.05141C3.5559 5.03364 3.58266 5.03364 3.58898 5.05141Z" fill="#F5F5F5"/>
<path d="M4.18297 2.54386L4.23176 2.6812L4.38597 2.6823C4.40594 2.68247 4.41421 2.70637 4.39816 2.71751L4.2741 2.80352L4.32064 2.94155C4.32668 2.95941 4.30498 2.97422 4.28873 2.9633L4.16327 2.87911L4.03782 2.9633C4.02157 2.97419 3.99992 2.95941 4.00591 2.94155L4.05245 2.80352L3.92839 2.71751C3.91234 2.70635 3.9206 2.68247 3.94058 2.6823L4.09479 2.6812L4.14358 2.54386C4.14984 2.52607 4.17666 2.52607 4.18297 2.54386Z" fill="#F5F5F5"/>
<path d="M4.18297 3.26235L4.23176 3.39969L4.38597 3.40079C4.40594 3.40096 4.41421 3.42486 4.39816 3.436L4.2741 3.52201L4.32064 3.66003C4.32668 3.67789 4.30498 3.69271 4.28873 3.68178L4.16327 3.5976L4.03782 3.68178C4.02157 3.69268 3.99992 3.67789 4.00591 3.66003L4.05245 3.52201L3.92839 3.436C3.91234 3.42484 3.9206 3.40096 3.94058 3.40079L4.09479 3.39969L4.14358 3.26235C4.14984 3.24458 4.17666 3.24458 4.18297 3.26235Z" fill="#F5F5F5"/>
<path d="M4.18297 3.98085L4.23176 4.1182L4.38597 4.1193C4.40594 4.11946 4.41421 4.14337 4.39816 4.1545L4.2741 4.24052L4.32064 4.37854C4.32668 4.3964 4.30498 4.41121 4.28873 4.40029L4.16327 4.3161L4.03782 4.40029C4.02157 4.41119 3.99992 4.3964 4.00591 4.37854L4.05245 4.24052L3.92839 4.1545C3.91234 4.14335 3.9206 4.11946 3.94058 4.1193L4.09479 4.1182L4.14358 3.98085C4.14984 3.96309 4.17666 3.96309 4.18297 3.98085Z" fill="#F5F5F5"/>
<path d="M4.18297 4.69925L4.23176 4.8366L4.38597 4.8377C4.40594 4.83786 4.41421 4.86177 4.39816 4.8729L4.2741 4.95892L4.32064 5.09694C4.32668 5.1148 4.30498 5.12961 4.28873 5.11869L4.16327 5.0345L4.03782 5.11869C4.02157 5.12959 3.99992 5.1148 4.00591 5.09694L4.05245 4.95892L3.92839 4.8729C3.91234 4.86175 3.9206 4.83786 3.94058 4.8377L4.09479 4.8366L4.14358 4.69925C4.14984 4.68147 4.17666 4.68147 4.18297 4.69925Z" fill="#F5F5F5"/>
<path d="M4.18297 5.41766L4.23176 5.555L4.38597 5.5561C4.40594 5.55627 4.41421 5.58017 4.39816 5.5913L4.2741 5.67732L4.32064 5.81534C4.32668 5.8332 4.30498 5.84802 4.28873 5.83709L4.16327 5.75291L4.03782 5.83709C4.02157 5.84799 3.99992 5.8332 4.00591 5.81534L4.05245 5.67732L3.92839 5.5913C3.91234 5.58015 3.9206 5.55627 3.94058 5.5561L4.09479 5.555L4.14358 5.41766C4.14984 5.39984 4.17666 5.39984 4.18297 5.41766Z" fill="#F5F5F5"/>
<path d="M4.77709 2.89614L4.82587 3.03348L4.98009 3.03458C5.00006 3.03475 5.00832 3.05865 4.99227 3.06978L4.86821 3.1558L4.91475 3.29382C4.92079 3.31168 4.8991 3.3265 4.88284 3.31557L4.75739 3.23139L4.63194 3.31557C4.61568 3.32647 4.59404 3.31168 4.60003 3.29382L4.64657 3.1558L4.52251 3.06978C4.50646 3.05863 4.51472 3.03475 4.53469 3.03458L4.68891 3.03348L4.73769 2.89614C4.74398 2.87837 4.7708 2.87837 4.77709 2.89614Z" fill="#F5F5F5"/>
<path d="M4.77709 3.61466L4.82587 3.75201L4.98009 3.75311C5.00006 3.75327 5.00832 3.77718 4.99227 3.78831L4.86821 3.87433L4.91475 4.01235C4.92079 4.03021 4.8991 4.04502 4.88284 4.0341L4.75739 3.94991L4.63194 4.0341C4.61568 4.045 4.59404 4.03023 4.60003 4.01235L4.64657 3.87433L4.52251 3.78831C4.50646 3.77715 4.51472 3.75327 4.53469 3.75311L4.68891 3.75201L4.73769 3.61466C4.74398 3.59687 4.7708 3.59687 4.77709 3.61466Z" fill="#F5F5F5"/>
<path d="M4.77709 4.33304L4.82587 4.47039L4.98009 4.47149C5.00006 4.47165 5.00832 4.49556 4.99227 4.50669L4.86821 4.59271L4.91475 4.73073C4.92079 4.74859 4.8991 4.7634 4.88284 4.75248L4.75739 4.66829L4.63194 4.75248C4.61568 4.76338 4.59404 4.74859 4.60003 4.73073L4.64657 4.59271L4.52251 4.50669C4.50646 4.49553 4.51472 4.47165 4.53469 4.47149L4.68891 4.47039L4.73769 4.33304C4.74398 4.31525 4.7708 4.31525 4.77709 4.33304Z" fill="#F5F5F5"/>
<path d="M4.77709 5.05141L4.82587 5.18875L4.98009 5.18986C5.00006 5.19002 5.00832 5.21393 4.99227 5.22506L4.86821 5.31108L4.91475 5.4491C4.92079 5.46696 4.8991 5.48177 4.88284 5.47085L4.75739 5.38666L4.63194 5.47085C4.61568 5.48175 4.59404 5.46696 4.60003 5.4491L4.64657 5.31108L4.52251 5.22506C4.50646 5.2139 4.51472 5.19002 4.53469 5.18986L4.68891 5.18875L4.73769 5.05141C4.74398 5.03364 4.7708 5.03364 4.77709 5.05141Z" fill="#F5F5F5"/>
<path d="M5.37108 2.54386L5.41987 2.6812L5.57408 2.6823C5.59405 2.68247 5.60232 2.70637 5.58626 2.71751L5.46221 2.80352L5.50875 2.94155C5.51479 2.95941 5.49309 2.97422 5.47684 2.9633L5.35138 2.87911L5.22593 2.9633C5.20968 2.97419 5.18803 2.95941 5.19402 2.94155L5.24056 2.80352L5.1165 2.71751C5.10045 2.70635 5.10872 2.68247 5.12869 2.6823L5.2829 2.6812L5.33169 2.54386C5.33798 2.52607 5.36474 2.52607 5.37108 2.54386Z" fill="#F5F5F5"/>
<path d="M5.37108 3.26235L5.41987 3.39969L5.57408 3.40079C5.59405 3.40096 5.60232 3.42486 5.58626 3.436L5.46221 3.52201L5.50875 3.66003C5.51479 3.67789 5.49309 3.69271 5.47684 3.68178L5.35138 3.5976L5.22593 3.68178C5.20968 3.69268 5.18803 3.67789 5.19402 3.66003L5.24056 3.52201L5.1165 3.436C5.10045 3.42484 5.10872 3.40096 5.12869 3.40079L5.2829 3.39969L5.33169 3.26235C5.33798 3.24458 5.36474 3.24458 5.37108 3.26235Z" fill="#F5F5F5"/>
<path d="M5.37108 3.98085L5.41987 4.1182L5.57408 4.1193C5.59405 4.11946 5.60232 4.14337 5.58626 4.1545L5.46221 4.24052L5.50875 4.37854C5.51479 4.3964 5.49309 4.41121 5.47684 4.40029L5.35138 4.3161L5.22593 4.40029C5.20968 4.41119 5.18803 4.3964 5.19402 4.37854L5.24056 4.24052L5.1165 4.1545C5.10045 4.14335 5.10872 4.11946 5.12869 4.1193L5.2829 4.1182L5.33169 3.98085C5.33798 3.96309 5.36474 3.96309 5.37108 3.98085Z" fill="#F5F5F5"/>
<path d="M5.37108 4.69925L5.41987 4.8366L5.57408 4.8377C5.59405 4.83786 5.60232 4.86177 5.58626 4.8729L5.46221 4.95892L5.50875 5.09694C5.51479 5.1148 5.49309 5.12961 5.47684 5.11869L5.35138 5.0345L5.22593 5.11869C5.20968 5.12959 5.18803 5.1148 5.19402 5.09694L5.24056 4.95892L5.1165 4.8729C5.10045 4.86175 5.10872 4.83786 5.12869 4.8377L5.2829 4.8366L5.33169 4.69925C5.33798 4.68147 5.36474 4.68147 5.37108 4.69925Z" fill="#F5F5F5"/>
<path d="M5.37108 5.41766L5.41987 5.555L5.57408 5.5561C5.59405 5.55627 5.60232 5.58017 5.58626 5.5913L5.46221 5.67732L5.50875 5.81534C5.51479 5.8332 5.49309 5.84802 5.47684 5.83709L5.35138 5.75291L5.22593 5.83709C5.20968 5.84799 5.18803 5.8332 5.19402 5.81534L5.24056 5.67732L5.1165 5.5913C5.10045 5.58015 5.10872 5.55627 5.12869 5.5561L5.2829 5.555L5.33169 5.41766C5.33798 5.39984 5.36474 5.39984 5.37108 5.41766Z" fill="#F5F5F5"/>
</g>
<defs>
<clipPath id="clip0">
<rect width="12.7826" height="12" fill="white"/>
</clipPath>
</defs>
</svg>
