<svg width="12" height="12" viewBox="0 0 12 12" fill="none" xmlns="http://www.w3.org/2000/svg">
<g clip-path="url(#clip0)">
<path d="M6 6.75909C2.39445 6.75909 0.408752 8.46478 0.408752 11.562C0.408752 11.8039 0.604807 12 0.846706 12H11.1533C11.3952 12 11.5912 11.8039 11.5912 11.562C11.5913 8.46495 9.60556 6.75909 6 6.75909ZM1.3006 11.1241C1.47286 8.80831 3.05168 7.63502 6 7.63502C8.94832 7.63502 10.5272 8.80831 10.6996 11.1241H1.3006Z" fill="black"/>
<path d="M6.00001 0C4.3438 0 3.09491 1.27402 3.09491 2.96337C3.09491 4.7022 4.39813 6.11665 6.00001 6.11665C7.6019 6.11665 8.90511 4.7022 8.90511 2.96351C8.90511 1.27402 7.65622 0 6.00001 0ZM6.00001 5.24088C4.88104 5.24088 3.97082 4.21927 3.97082 2.96351C3.97082 1.75388 4.82425 0.875906 6.00001 0.875906C7.15696 0.875906 8.02921 1.77328 8.02921 2.96351C8.02921 4.21927 7.11899 5.24088 6.00001 5.24088Z" fill="black"/>
</g>
<defs>
<clipPath id="clip0">
<rect width="12" height="12" fill="white"/>
</clipPath>
</defs>
</svg>
